<svg xmlns="http://www.w3.org/2000/svg" viewBox="0 0 256 256" preserveAspectRatio="xMidYMid meet"><metadata> Created by potrace 1.10, written by Peter Selinger 2001-2011 </metadata><g transform="translate(0.000000,256.000000) scale(0.100000,-0.100000)" fill="#7C4D1F" stroke="none"><path d="M1170 2549 c-177 -10 -321 -51 -484 -137 -338 -178 -581 -499 -660 -872 -19 -91 -19 -432 1 -524 105 -499 520 -905 1012 -991 111 -20 372 -20 485 0 474 83 880 469 999 950 23 92 27 137 27 307 1 251 -30 384 -136 590 -120 232 -315 425 -550 545 -216 110 -414 148 -694 132z m285 -44 c728 -107 1207 -819 1026 -1526 -193 -756 -1017 -1147 -1726 -820 -453 210 -740 688 -711 1186 42 729 695 1265 1411 1160z"/><path d="M911 2079 c-111 -55 -168 -165 -159 -305 6 -84 29 -137 105 -237 95 -126 379 -387 422 -387 53 0 367 296 458 433 63 94 77 139 71 238 -13 224 -194 341 -409 265 -37 -13 -77 -30 -89 -39 -21 -15 -26 -14 -69 7 -127 65 -235 73 -330 25z m246 -48 c27 -10 65 -28 85 -40 l36 -22 71 36 c88 45 178 62 239 46 64 -18 136 -91 156 -160 32 -110 18 -178 -60 -288 -78 -110 -308 -338 -392 -387 -41 -25 -363 294 -460 455 -32 53 -39 143 -17 214 22 68 91 145 145 161 49 14 140 8 197 -15z"/><path d="M1131 1916 c-12 -13 -25 -42 -28 -63 -10 -76 65 -123 130 -80 31 20 41 68 23 112 -25 58 -85 73 -125 31z m77 -51 c15 -32 15 -31 -4 -49 -12 -12 -20 -13 -35 -6 -22 12 -23 19 -9 54 12 33 34 33 48 1z"/><path d="M1326 1915 c-45 -49 -38 -123 15 -150 39 -21 53 -19 88 11 41 34 43 88 5 133 -33 39 -75 42 -108 6z m76 -49 c15 -34 4 -58 -24 -54 -26 3 -36 41 -18 64 18 20 29 17 42 -10z"/><path d="M1000 1817 c-32 -16 -64 -80 -56 -112 24 -97 166 -79 166 21 0 28 -8 44 -34 70 -38 38 -41 39 -76 21z m52 -71 c14 -31 4 -56 -21 -56 -28 0 -41 28 -28 57 13 30 35 29 49 -1z"/><path d="M1498 1810 c-32 -25 -52 -73 -44 -105 17 -66 94 -88 143 -39 35 35 28 97 -17 137 -36 32 -49 33 -82 7z m72 -85 c0 -19 -28 -38 -45 -31 -25 9 -29 34 -10 63 l18 27 18 -23 c11 -13 19 -29 19 -36z"/><path d="M1214 1733 c-104 -36 -163 -165 -118 -259 10 -21 34 -45 61 -61 59 -34 177 -37 240 -5 131 68 105 259 -46 323 -48 21 -80 21 -137 2z m108 -42 c9 -1 35 -18 57 -39 30 -29 41 -47 46 -83 8 -56 -3 -82 -48 -109 -40 -25 -144 -27 -187 -5 -70 36 -76 140 -12 199 24 21 89 45 111 41 9 -2 24 -4 33 -4z"/><path d="M1259 1628 c-1 -7 -1 -18 0 -25 1 -6 -11 -13 -26 -15 -20 -2 -28 -9 -28 -23 0 -14 8 -21 28 -23 15 -2 27 -9 26 -15 -4 -30 2 -38 24 -35 16 2 21 9 20 25 -2 17 3 22 25 25 19 2 27 9 27 23 0 14 -8 21 -27 23 -22 3 -27 8 -25 25 1 16 -4 23 -20 25 -14 2 -23 -2 -24 -10z"/><path d="M1905 1160 l-28 -29 -29 24 c-38 32 -116 35 -142 6 -18 -19 -18 -19 -49 0 -18 11 -50 19 -74 19 -39 0 -45 -4 -130 -95 l-88 -95 -79 21 c-44 11 -111 38 -150 59 -106 57 -162 71 -280 66 -75 -3 -122 -10 -181 -30 -88 -29 -210 -106 -221 -138 -8 -25 11 -47 30 -33 68 52 163 106 216 125 53 18 85 22 176 22 97 -1 119 -4 170 -27 33 -14 75 -37 94 -50 22 -15 94 -39 199 -65 179 -43 211 -61 211 -112 0 -18 -10 -39 -26 -54 -30 -30 -31 -30 -220 21 -109 30 -141 35 -239 35 -95 0 -114 -3 -119 -16 -13 -35 11 -43 132 -43 100 -1 132 -5 222 -32 58 -17 131 -33 162 -36 57 -6 58 -5 98 34 22 23 40 50 40 62 0 17 6 21 34 21 42 0 55 11 169 145 133 157 152 175 180 175 25 0 77 -50 77 -73 -1 -23 -26 -58 -135 -187 l-110 -131 -245 -123 c-185 -93 -252 -123 -275 -120 -16 2 -131 46 -254 99 l-225 95 -180 -2 c-179 -3 -181 -3 -184 -25 -2 -13 -2 -23 0 -24 2 0 86 -3 187 -6 l183 -5 225 -94 c134 -56 239 -94 259 -94 23 0 111 39 286 127 l253 126 125 147 c159 187 173 232 94 307 -30 28 -43 33 -83 33 -39 0 -52 -5 -76 -30z m-274 -41 c19 -10 19 -11 -10 -47 -17 -20 -48 -56 -68 -79 l-38 -42 -47 10 -48 11 73 79 c74 81 95 91 138 68z m190 -8 l23 -18 -79 -89 c-111 -127 -109 -125 -142 -130 -26 -4 -32 -1 -43 26 -12 30 -11 32 60 113 40 45 82 90 93 100 25 22 59 22 88 -2z"/></g></svg>
 